<svg width="36" height="32" viewBox="0 0 36 32" fill="none" xmlns="http://www.w3.org/2000/svg">
<path d="M36 17.6623C36 14.7767 33.9223 12.4072 31.299 12.206C30.9879 11.1731 30.1473 10.3626 29.088 10.0815C28.3816 4.36142 23.6665 0 18 0C12.3335 0 7.61836 4.36142 6.91207 10.0815C5.85281 10.3626 5.01209 11.173 4.70102 12.206C4.6099 12.213 4.51948 12.2226 4.42976 12.2348V5.47186C4.42976 4.89808 3.95754 4.4329 3.37507 4.4329C2.7926 4.4329 2.32038 4.89808 2.32038 5.47186V13.0664C0.925594 14.0419 0 15.7369 0 17.6623C0 20.548 2.07773 22.9175 4.70095 23.1187C5.0111 24.1484 5.8474 24.9567 6.90195 25.2404C7.35124 27.8166 9.63359 29.7836 12.375 29.7836H12.6189C13.0602 31.0705 14.2966 32 15.75 32H20.25C22.0722 32 23.5547 30.5396 23.5547 28.7446C23.5547 26.9495 22.0722 25.4892 20.25 25.4892H15.75C14.2966 25.4892 13.0602 26.4187 12.6189 27.7056H12.375C10.7801 27.7056 9.43524 26.6323 9.04458 25.1805C10.2855 24.7589 11.1797 23.5976 11.1797 22.2338V13.0909C11.1797 11.7223 10.2793 10.5578 9.03164 10.1398C9.69047 5.55068 13.4716 2.07792 18 2.07792C22.5284 2.07792 26.3095 5.55068 26.9684 10.1398C25.7207 10.5578 24.8203 11.7223 24.8203 13.0909V22.2338C24.8203 23.9524 26.2397 25.3506 27.9844 25.3506H28.2656C29.6982 25.3506 30.9109 24.4075 31.299 23.1187C33.9223 22.9175 36 20.548 36 17.6623ZM15.75 27.5671H20.25C20.9091 27.5671 21.4453 28.0953 21.4453 28.7446C21.4453 29.3939 20.9091 29.9221 20.25 29.9221H15.75C15.0909 29.9221 14.5547 29.3939 14.5547 28.7446C14.5547 28.0953 15.0909 27.5671 15.75 27.5671ZM2.10938 17.6623C2.10938 16.0148 3.19395 14.5962 4.57031 14.3178V21.0068C3.19395 20.7285 2.10938 19.3099 2.10938 17.6623ZM9.07031 22.2338C9.07031 22.8067 8.59718 23.2727 8.01562 23.2727H7.73438C7.15282 23.2727 6.67969 22.8067 6.67969 22.2338C6.67969 18.8998 6.67969 16.1729 6.67969 13.0909C6.67969 12.518 7.15282 12.0519 7.73438 12.0519H8.01562C8.59718 12.0519 9.07031 12.518 9.07031 13.0909V22.2338ZM29.3203 22.2338C29.3203 22.8067 28.8472 23.2727 28.2656 23.2727H27.9844C27.4028 23.2727 26.9297 22.8067 26.9297 22.2338V13.0909C26.9297 12.518 27.4028 12.0519 27.9844 12.0519H28.2656C28.8472 12.0519 29.3203 12.518 29.3203 13.0909V22.2338ZM31.4297 21.0069V14.3179C32.8061 14.5962 33.8906 16.0148 33.8906 17.6624C33.8906 19.31 32.8061 20.7285 31.4297 21.0069Z" fill="black"/>
</svg>
