<svg width="24" height="24" viewBox="0 0 24 24" fill="none" xmlns="http://www.w3.org/2000/svg">
<g filter="url(#filter0_ii)">
<path d="M23.3555 10.4388C23.3547 10.4383 23.3542 10.4376 23.3536 10.437L13.5626 0.647278C13.1452 0.229797 12.5903 0 12.0001 0C11.4099 0 10.8551 0.229797 10.4375 0.647278L0.65158 10.4321C0.648283 10.4354 0.644804 10.4388 0.641691 10.4421C-0.215329 11.304 -0.213864 12.7024 0.645903 13.5621C1.0387 13.955 1.55731 14.1824 2.11199 14.2064C2.1347 14.2086 2.15741 14.2097 2.1803 14.2097H2.57035V21.4142C2.57035 22.84 3.73063 24 5.15661 24H8.9872C9.3756 24 9.6904 23.6851 9.6904 23.2969V17.6484C9.6904 16.9979 10.2198 16.4687 10.8704 16.4687H13.1298C13.7805 16.4687 14.3097 16.9979 14.3097 17.6484V23.2969C14.3097 23.6851 14.6245 24 15.0129 24H18.8435C20.2696 24 21.4297 22.84 21.4297 21.4142V14.2097H21.7916C22.3816 14.2097 22.9365 13.9799 23.3542 13.5623C24.2149 12.7013 24.2152 11.3004 23.3555 10.4388ZM22.3596 12.568C22.2078 12.7198 22.006 12.8035 21.7916 12.8035H20.7265C20.3381 12.8035 20.0233 13.1182 20.0233 13.5066V21.4142C20.0233 22.0646 19.4941 22.5938 18.8435 22.5938H15.7161V17.6484C15.7161 16.2226 14.556 15.0624 13.1298 15.0624H10.8704C9.44428 15.0624 8.284 16.2226 8.284 17.6484V22.5938H5.15661C4.50616 22.5938 3.97674 22.0646 3.97674 21.4142V13.5066C3.97674 13.1182 3.66195 12.8035 3.27355 12.8035H2.22681C2.21582 12.8027 2.20502 12.8022 2.19385 12.802C1.98436 12.7983 1.78786 12.7152 1.64063 12.5678C1.32749 12.2547 1.32749 11.7451 1.64063 11.4318C1.64082 11.4318 1.64082 11.4316 1.641 11.4315L1.64155 11.4309L11.4323 1.64154C11.5839 1.48975 11.7855 1.40625 12.0001 1.40625C12.2146 1.40625 12.4162 1.48975 12.568 1.64154L22.3565 11.4289C22.358 11.4304 22.3596 11.4318 22.3611 11.4333C22.6726 11.7469 22.6721 12.2554 22.3596 12.568Z" fill="black"/>
</g>
<defs>
<filter id="filter0_ii" x="-0.5" y="-0.5" width="25" height="25" filterUnits="userSpaceOnUse" color-interpolation-filters="sRGB">
<feFlood flood-opacity="0" result="BackgroundImageFix"/>
<feBlend mode="normal" in="SourceGraphic" in2="BackgroundImageFix" result="shape"/>
<feColorMatrix in="SourceAlpha" type="matrix" values="0 0 0 0 0 0 0 0 0 0 0 0 0 0 0 0 0 0 127 0" result="hardAlpha"/>
<feOffset dx="-0.5" dy="-0.5"/>
<feGaussianBlur stdDeviation="0.25"/>
<feComposite in2="hardAlpha" operator="arithmetic" k2="-1" k3="1"/>
<feColorMatrix type="matrix" values="0 0 0 0 1 0 0 0 0 1 0 0 0 0 1 0 0 0 0.4 0"/>
<feBlend mode="normal" in2="shape" result="effect1_innerShadow"/>
<feColorMatrix in="SourceAlpha" type="matrix" values="0 0 0 0 0 0 0 0 0 0 0 0 0 0 0 0 0 0 127 0" result="hardAlpha"/>
<feOffset dx="0.5" dy="0.5"/>
<feGaussianBlur stdDeviation="0.25"/>
<feComposite in2="hardAlpha" operator="arithmetic" k2="-1" k3="1"/>
<feColorMatrix type="matrix" values="0 0 0 0 0.127604 0 0 0 0 0.267969 0 0 0 0 0.408333 0 0 0 0.4 0"/>
<feBlend mode="normal" in2="effect1_innerShadow" result="effect2_innerShadow"/>
</filter>
</defs>
</svg>
