<svg width="29" height="32" viewBox="0 0 29 32" fill="none" xmlns="http://www.w3.org/2000/svg">
<path d="M23.7555 13.125H20.9788V6.5625C20.9788 2.94394 18.0724 0 14.5 0C10.9276 0 8.02117 2.94394 8.02117 6.5625V13.125H5.24452C4.73338 13.125 4.31898 13.5448 4.31898 14.0625C4.31898 19.4328 8.39281 23.8567 13.5745 24.3319V26.375H12.6489C10.0972 26.375 8.02117 28.4778 8.02117 31.0625C8.02117 31.5802 8.43557 32 8.94672 32H20.0533C20.5644 32 20.9788 31.5802 20.9788 31.0625C20.9788 28.4778 18.9028 26.375 16.3511 26.375H15.4256V24.3319C20.6072 23.8567 24.681 19.4328 24.681 14.0625C24.681 13.5448 24.2666 13.125 23.7555 13.125ZM18.9692 30.125H10.0308C10.4128 29.0337 11.4422 28.25 12.6489 28.25H16.3511C17.5578 28.25 18.5872 29.0337 18.9692 30.125ZM9.87226 11.25H11.4148C11.926 11.25 12.3404 10.8302 12.3404 10.3125C12.3404 9.79475 11.926 9.375 11.4148 9.375H9.87226V7.5H11.4148C11.926 7.5 12.3404 7.08025 12.3404 6.5625C12.3404 6.04475 11.926 5.625 11.4148 5.625H9.96537C10.1951 4.48344 10.8357 3.49156 11.7234 2.81506V3.4375C11.7234 3.95525 12.1378 4.375 12.6489 4.375C13.1601 4.375 13.5745 3.95525 13.5745 3.4375V1.96931C13.8736 1.90756 14.1831 1.875 14.5 1.875C14.8169 1.875 15.1264 1.90756 15.4256 1.96931V3.4375C15.4256 3.95525 15.84 4.375 16.3511 4.375C16.8622 4.375 17.2766 3.95525 17.2766 3.4375V2.81506C18.1643 3.49156 18.8049 4.48344 19.0346 5.625H17.5852C17.074 5.625 16.6596 6.04475 16.6596 6.5625C16.6596 7.08025 17.074 7.5 17.5852 7.5H19.1277V9.375H17.5852C17.074 9.375 16.6596 9.79475 16.6596 10.3125C16.6596 10.8302 17.074 11.25 17.5852 11.25H19.1277V13.125H9.87226V11.25ZM19.0346 15C18.6047 17.137 16.7349 18.75 14.5 18.75C12.2652 18.75 10.3954 17.137 9.96537 15H19.0346ZM14.5 22.5C10.2197 22.5 6.68307 19.2128 6.22116 15H8.08756C8.53806 18.1761 11.2418 20.625 14.5 20.625C17.7582 20.625 20.462 18.1761 20.9124 15H22.7788C22.3169 19.2128 18.7803 22.5 14.5 22.5Z" fill="black"/>
<path d="M27.1054 1.92212C26.744 1.556 26.158 1.556 25.7965 1.92212C25.435 2.28825 25.435 2.88181 25.7965 3.24794C27.6008 5.07562 27.6008 8.04944 25.7965 9.87706C25.435 10.2432 25.435 10.8368 25.7965 11.2029C25.9772 11.3859 26.2141 11.4775 26.4509 11.4775C26.6877 11.4775 26.9247 11.386 27.1054 11.2029C29.6315 8.64419 29.6315 4.48081 27.1054 1.92212Z" fill="black"/>
<path d="M23.1787 4.57375C22.8172 4.93988 22.8172 5.53344 23.1787 5.89956C23.3535 6.07662 23.4498 6.31206 23.4498 6.5625C23.4498 6.81294 23.3535 7.04831 23.1787 7.22544C22.8172 7.59156 22.8172 8.18513 23.1787 8.55125C23.3594 8.73431 23.5963 8.82588 23.8331 8.82588C24.0699 8.82588 24.3069 8.73438 24.4875 8.55125C25.5702 7.45469 25.5702 5.67037 24.4875 4.57375C24.1261 4.20762 23.5401 4.20762 23.1787 4.57375Z" fill="black"/>
<path d="M3.204 1.92212C2.84254 1.556 2.25655 1.556 1.89509 1.92212C0.672997 3.15994 0 4.80794 0 6.5625C0 8.31706 0.672997 9.96506 1.89509 11.2029C2.07582 11.3859 2.3127 11.4775 2.54951 11.4775C2.78633 11.4775 3.02327 11.386 3.20394 11.2029C3.5654 10.8368 3.5654 10.2432 3.20394 9.87706C2.33158 8.99338 1.8511 7.81625 1.8511 6.5625C1.8511 5.30875 2.33158 4.13163 3.204 3.24794C3.56546 2.88181 3.56546 2.28825 3.204 1.92212Z" fill="black"/>
<path d="M5.1674 8.82581C5.40427 8.82581 5.64115 8.73431 5.82182 8.55119C6.18328 8.18506 6.18328 7.5915 5.82182 7.22538C5.64702 7.04831 5.5507 6.81287 5.5507 6.56244C5.5507 6.312 5.64702 6.07662 5.82182 5.8995C6.18328 5.53337 6.18328 4.93981 5.82182 4.57369C5.46042 4.20756 4.87437 4.20756 4.51291 4.57369C3.43027 5.67025 3.43027 7.45456 4.51291 8.55119C4.6937 8.73431 4.93052 8.82581 5.1674 8.82581Z" fill="black"/>
</svg>
