<svg width="32" height="32" viewBox="0 0 32 32" fill="none" xmlns="http://www.w3.org/2000/svg">
<path d="M16 0C12.247 0 8.71656 1.46412 6.059 4.12269L7.38506 5.44825C9.6885 3.144 12.748 1.875 16 1.875C19.252 1.875 22.3115 3.144 24.6149 5.44825L25.941 4.12269C23.2834 1.46412 19.753 0 16 0Z" fill="black"/>
<path d="M16 7.55356C14.2421 7.55356 12.5521 8.23588 11.3634 9.42556L12.6898 10.7508C13.5294 9.9105 14.7359 9.42856 16 9.42856C17.2641 9.42856 18.4706 9.9105 19.3102 10.7508L20.6366 9.42556C19.4479 8.23588 17.7579 7.55356 16 7.55356Z" fill="black"/>
<path d="M16 3.75C13.2496 3.75 10.6611 4.82381 8.71119 6.77369L10.037 8.0995C11.6327 6.50381 13.7504 5.625 16 5.625C18.2496 5.625 20.3672 6.50381 21.963 8.0995L23.2888 6.77369C21.3389 4.82381 18.7504 3.75 16 3.75Z" fill="black"/>
<path d="M25.4375 13.1875H6.5625C2.94394 13.1875 0 16.1314 0 19.75C0 23.3686 2.94394 26.3125 6.5625 26.3125H10.9538L9.69694 30.125H7.5625V32C8.58763 32 23.8607 32 24.4375 32V30.125H22.3031L21.0462 26.3125H25.4375C29.0561 26.3125 32 23.3686 32 19.75C32 16.1314 29.0561 13.1875 25.4375 13.1875ZM11.6712 30.125L12.928 26.3125H19.0719L20.3288 30.125H11.6712ZM25.4375 24.4375C24.4301 24.4375 7.5575 24.4375 6.5625 24.4375C3.97781 24.4375 1.875 22.3347 1.875 19.75C1.875 17.1653 3.97781 15.0625 6.5625 15.0625H25.4375C28.0222 15.0625 30.125 17.1653 30.125 19.75C30.125 22.3347 28.0222 24.4375 25.4375 24.4375Z" fill="black"/>
<path d="M6.5625 16.9375C5.01169 16.9375 3.75 18.1992 3.75 19.75C3.75 21.3008 5.01169 22.5625 6.5625 22.5625C8.11331 22.5625 9.375 21.3008 9.375 19.75C9.375 18.1992 8.11331 16.9375 6.5625 16.9375ZM6.5625 20.6875C6.04556 20.6875 5.625 20.2669 5.625 19.75C5.625 19.2331 6.04556 18.8125 6.5625 18.8125C7.07944 18.8125 7.5 19.2331 7.5 19.75C7.5 20.2669 7.07944 20.6875 6.5625 20.6875Z" fill="black"/>
<path d="M16 16.9375C14.4492 16.9375 13.1875 18.1992 13.1875 19.75C13.1875 21.3008 14.4492 22.5625 16 22.5625C17.5508 22.5625 18.8125 21.3008 18.8125 19.75C18.8125 18.1992 17.5508 16.9375 16 16.9375ZM16 20.6875C15.4831 20.6875 15.0625 20.2669 15.0625 19.75C15.0625 19.2331 15.4831 18.8125 16 18.8125C16.5169 18.8125 16.9375 19.2331 16.9375 19.75C16.9375 20.2669 16.5169 20.6875 16 20.6875Z" fill="black"/>
<path d="M25.4375 16.9375C23.8867 16.9375 22.625 18.1992 22.625 19.75C22.625 21.3008 23.8867 22.5625 25.4375 22.5625C26.9883 22.5625 28.25 21.3008 28.25 19.75C28.25 18.1992 26.9883 16.9375 25.4375 16.9375ZM25.4375 20.6875C24.9206 20.6875 24.5 20.2669 24.5 19.75C24.5 19.2331 24.9206 18.8125 25.4375 18.8125C25.9544 18.8125 26.375 19.2331 26.375 19.75C26.375 20.2669 25.9544 20.6875 25.4375 20.6875Z" fill="black"/>
</svg>
