<svg width="24" height="24" viewBox="0 0 24 24" fill="none" xmlns="http://www.w3.org/2000/svg">
<g filter="url(#filter0_ii)">
<path d="M20.6703 3.69288C18.4051 1.3284 15.2709 -0.00600475 11.9965 2.0315e-05C5.37941 -0.00831435 0.00834381 5.34942 9.49964e-06 11.9669C-0.00410745 15.239 1.33009 18.3704 3.69271 20.6341C3.69959 20.6409 3.70215 20.6512 3.70898 20.6572C3.77837 20.7241 3.85378 20.7807 3.92406 20.8449C4.11686 21.0163 4.30965 21.1937 4.51274 21.3591C4.62154 21.4448 4.73465 21.5304 4.84606 21.6093C5.038 21.7523 5.22994 21.8954 5.43042 22.0274C5.56668 22.1131 5.70721 22.1988 5.84683 22.2845C6.03189 22.3959 6.21615 22.5081 6.40724 22.6101C6.5692 22.6958 6.73454 22.7695 6.89906 22.8475C7.079 22.9332 7.25638 23.0188 7.44059 23.0959C7.6248 23.1731 7.80991 23.2331 7.99668 23.2999C8.18345 23.3667 8.34456 23.4284 8.52365 23.4832C8.72588 23.5441 8.93324 23.5912 9.13888 23.6418C9.31024 23.6837 9.47647 23.7317 9.653 23.766C9.88947 23.8132 10.1294 23.8431 10.3694 23.8757C10.5176 23.8963 10.6624 23.9254 10.8123 23.94C11.2048 23.9786 11.6006 24 11.9999 24C12.3992 24 12.7951 23.9786 13.1875 23.94C13.3375 23.9254 13.4823 23.8963 13.6305 23.8757C13.8704 23.8431 14.1103 23.8132 14.3468 23.766C14.5182 23.7317 14.6896 23.6803 14.8609 23.6418C15.0666 23.5912 15.2739 23.5441 15.4762 23.4832C15.6553 23.4284 15.8283 23.3616 16.0031 23.2999C16.178 23.2382 16.3767 23.1714 16.5592 23.0959C16.7417 23.0205 16.9208 22.9323 17.1008 22.8475C17.2653 22.7695 17.4307 22.6958 17.5926 22.6101C17.7837 22.5081 17.9679 22.3959 18.153 22.2845C18.2927 22.1988 18.4332 22.1208 18.5694 22.0274C18.7699 21.8955 18.9619 21.7524 19.1538 21.6093C19.2652 21.5235 19.3782 21.4464 19.4871 21.3591C19.6902 21.1962 19.883 21.0232 20.0758 20.8449C20.146 20.7807 20.2214 20.7241 20.2908 20.6572C20.2977 20.6513 20.3003 20.641 20.3071 20.6341C25.0855 16.0562 25.248 8.47131 20.6703 3.69288ZM18.7444 19.7369C18.5884 19.874 18.4273 20.0043 18.2646 20.1303C18.1686 20.204 18.0726 20.2768 17.9741 20.3471C17.819 20.4593 17.6613 20.5656 17.5011 20.6675C17.3845 20.7421 17.2654 20.814 17.1454 20.8843C16.9946 20.97 16.8412 21.0557 16.6862 21.1414C16.549 21.2117 16.4094 21.2777 16.2689 21.3428C16.1284 21.4079 15.9733 21.4773 15.8216 21.5382C15.6699 21.599 15.5089 21.6564 15.3503 21.7095C15.2055 21.7592 15.0607 21.8106 14.9142 21.8543C14.7428 21.9057 14.5637 21.9477 14.3863 21.9906C14.2475 22.0231 14.1105 22.06 13.9699 22.0874C13.7668 22.1269 13.5595 22.1543 13.3513 22.1825C13.233 22.198 13.1157 22.2194 12.9965 22.2314C12.6675 22.2631 12.3341 22.282 11.9974 22.282C11.6607 22.282 11.3273 22.2631 10.9983 22.2314C10.8792 22.2194 10.7618 22.198 10.6435 22.1825C10.4353 22.1543 10.228 22.1269 10.0249 22.0874C9.88435 22.06 9.74724 22.0232 9.60847 21.9906C9.43109 21.9478 9.25456 21.9049 9.08064 21.8543C8.93414 21.8106 8.78929 21.7592 8.6445 21.7095C8.486 21.6547 8.32744 21.599 8.17321 21.5382C8.01897 21.4773 7.87332 21.4105 7.72592 21.3428C7.57851 21.2751 7.44571 21.2117 7.30865 21.1414C7.15356 21.0609 7.00018 20.976 6.84936 20.8843C6.72941 20.8141 6.61027 20.7421 6.49374 20.6675C6.33353 20.5656 6.17584 20.4593 6.02075 20.3471C5.92219 20.2768 5.82625 20.204 5.73025 20.1303C5.56743 20.0043 5.40637 19.8732 5.25043 19.7369C5.21272 19.7086 5.17843 19.6726 5.14163 19.6401C5.17994 16.7251 7.05249 14.1512 9.81411 13.2176C11.1949 13.8745 12.7981 13.8745 14.179 13.2176C16.9406 14.1512 18.8131 16.725 18.8515 19.6401C18.8155 19.6726 18.7812 19.7052 18.7444 19.7369ZM9.0086 6.8705C9.93637 5.22044 12.026 4.63495 13.676 5.56276C15.326 6.49057 15.9115 8.58031 14.9837 10.2304C14.6759 10.7779 14.2235 11.2302 13.676 11.5381C13.6717 11.5381 13.6666 11.5381 13.6615 11.5432C13.4342 11.6697 13.1941 11.7714 12.9451 11.8466C12.9006 11.8595 12.8594 11.8766 12.8123 11.8877C12.7266 11.91 12.6366 11.9254 12.5484 11.9408C12.3822 11.9699 12.214 11.9868 12.0454 11.9914H11.9477C11.7791 11.9868 11.6109 11.9699 11.4447 11.9408C11.359 11.9254 11.2682 11.91 11.1808 11.8877C11.1354 11.8766 11.0951 11.8595 11.048 11.8466C10.7991 11.7714 10.5589 11.6698 10.3317 11.5432L10.3163 11.5381C8.66629 10.6103 8.08083 8.52056 9.0086 6.8705ZM20.3715 17.9409C19.8217 15.3761 18.1328 13.2017 15.7839 12.0343C17.704 9.94258 17.565 6.6902 15.4733 4.76996C13.3817 2.84972 10.1294 2.9888 8.20926 5.08055C6.40413 7.04703 6.40413 10.0679 8.20926 12.0343C5.86034 13.2017 4.17148 15.3761 3.62162 17.9409C0.335893 13.3125 1.42417 6.89671 6.05238 3.61084C10.6806 0.324972 17.0961 1.4133 20.3818 6.0417C21.617 7.78159 22.28 9.86279 22.2789 11.9966C22.2789 14.1285 21.612 16.207 20.3715 17.9409Z" fill="black"/>
</g>
<defs>
<filter id="filter0_ii" x="-0.5" y="-0.5" width="25" height="25" filterUnits="userSpaceOnUse" color-interpolation-filters="sRGB">
<feFlood flood-opacity="0" result="BackgroundImageFix"/>
<feBlend mode="normal" in="SourceGraphic" in2="BackgroundImageFix" result="shape"/>
<feColorMatrix in="SourceAlpha" type="matrix" values="0 0 0 0 0 0 0 0 0 0 0 0 0 0 0 0 0 0 127 0" result="hardAlpha"/>
<feOffset dx="-0.5" dy="-0.5"/>
<feGaussianBlur stdDeviation="0.25"/>
<feComposite in2="hardAlpha" operator="arithmetic" k2="-1" k3="1"/>
<feColorMatrix type="matrix" values="0 0 0 0 1 0 0 0 0 1 0 0 0 0 1 0 0 0 0.4 0"/>
<feBlend mode="normal" in2="shape" result="effect1_innerShadow"/>
<feColorMatrix in="SourceAlpha" type="matrix" values="0 0 0 0 0 0 0 0 0 0 0 0 0 0 0 0 0 0 127 0" result="hardAlpha"/>
<feOffset dx="0.5" dy="0.5"/>
<feGaussianBlur stdDeviation="0.25"/>
<feComposite in2="hardAlpha" operator="arithmetic" k2="-1" k3="1"/>
<feColorMatrix type="matrix" values="0 0 0 0 0.127604 0 0 0 0 0.267969 0 0 0 0 0.408333 0 0 0 0.4 0"/>
<feBlend mode="normal" in2="effect1_innerShadow" result="effect2_innerShadow"/>
</filter>
</defs>
</svg>
