<svg width="120" height="40" viewBox="0 0 120 40" fill="none" xmlns="http://www.w3.org/2000/svg">
<path d="M82.5973 8.05808C79.4098 8.05808 77.8531 10.9355 77.8531 14.6542V25.0016C77.8531 27.3106 76.7972 29.3572 75.2159 29.3572H66.9758C66.9603 29.3571 66.945 29.3616 66.9307 29.3702C66.9163 29.3789 66.9033 29.3916 66.8923 29.4076C66.8814 29.4237 66.8727 29.4427 66.8667 29.4637C66.8607 29.4847 66.8577 29.5072 66.8576 29.53V31.8103C66.8578 31.8561 66.8703 31.9001 66.8924 31.9324C66.9146 31.9647 66.9446 31.9828 66.9758 31.9827H76.6904C79.8779 31.9827 81.4395 29.5129 81.4395 25.8014V14.6542C81.4395 12.3381 82.5903 10.6764 84.1717 10.6764H92.4586C92.4899 10.6766 92.5199 10.6584 92.542 10.6261C92.5642 10.5937 92.5767 10.5498 92.5768 10.5038V8.23068C92.5768 8.20793 92.5737 8.18542 92.5677 8.16444C92.5617 8.14346 92.553 8.12441 92.542 8.10838C92.531 8.09235 92.518 8.07966 92.5036 8.07103C92.4893 8.0624 92.474 8.058 92.4585 8.05808H82.5973ZM63.2531 7.94742H44.0963C44.0651 7.94742 44.0351 7.96559 44.013 7.99794C43.9909 8.03029 43.9785 8.07419 43.9784 8.12003V10.6047C43.9809 10.7013 44.0352 10.7775 44.1013 10.7775H62.0623C62.9913 10.7775 64.3898 11.8861 64.3898 14.5454C64.3898 17.2047 62.8404 18.3206 62.0622 18.3206H47.9935C45.7005 18.3206 43.9734 21.3378 43.9734 25.0721V31.903C43.9727 31.926 43.9753 31.9489 43.9809 31.9703C43.9866 31.9917 43.9953 32.0111 44.0064 32.0273C44.0175 32.0436 44.0308 32.0563 44.0454 32.0647C44.0601 32.073 44.0757 32.0768 44.0914 32.0758H47.4524C47.4836 32.0758 47.5136 32.0576 47.5357 32.0252C47.5578 31.9928 47.5702 31.9489 47.5703 31.903V25.065C47.5703 22.7553 48.7591 20.9894 50.0632 20.9894L63.2432 21.1363C66.427 21.1363 67.9819 18.2583 67.9819 14.5454C67.9819 10.8325 66.4269 7.94742 63.2433 7.94742H63.2531ZM13.053 0V37.3178L18.8118 40V8.69693C18.8118 7.25111 19.2557 6.2534 19.9755 6.5931C20.9172 6.97621 21.0997 8.32829 21.0997 9.78837V22.2882C24.6891 24.8329 27.5093 22.2882 27.5093 15.5792C27.5143 8.69693 25.8625 5.64614 21.001 3.20974C18.3967 1.91219 15.7428 0.840435 13.053 0V0Z" fill="black"/>
<path d="M20.0706 34.4627L29.344 29.5879C30.3952 29.0348 30.558 28.2417 29.7042 27.8343C28.5588 27.4437 27.3616 27.5344 26.2496 28.0962L20.0706 31.2976V26.2045L20.4259 26.0298C21.8231 25.3619 23.2637 24.9083 24.7246 24.6763C27.4275 24.2698 30.1582 24.7494 32.7197 26.0808C35.4391 27.354 35.7451 29.2168 35.0541 30.5047C34.3632 31.7925 32.6704 32.6873 32.6704 32.6873L20.0706 39.3815V34.4627ZM2.63699 34.0539C-0.138045 32.8966 -0.598862 30.4877 0.675946 29.0902C1.65828 28.1443 2.71951 27.3884 3.83342 26.8411L12.0459 22.4741V27.4088L6.16233 30.5532C5.11794 31.1062 4.96105 31.8922 5.80444 32.3071C6.9423 32.6982 8.13232 32.6073 9.23644 32.045L12.0704 30.5167V34.9782L11.5065 35.1093C8.55021 35.8205 5.52034 35.4581 2.68124 34.0539" fill="black"/>
<path fill-rule="evenodd" clip-rule="evenodd" d="M96.1571 8.05807H119.133C119.242 8.05807 119.296 8.12023 119.296 8.24453V10.5558C119.296 10.6681 119.242 10.7188 119.133 10.7084C106.267 10.707 99.7808 10.707 99.6743 10.7084C99.5677 10.7099 99.5012 10.7628 99.4745 10.8674V16.4516C99.4745 16.8683 99.7177 18.2118 100.649 18.2118H115.256C117.04 18.2118 120 20.0379 120 25.0878C120 30.1374 116.897 32.0116 115.633 32.0116H96.1571C96.0614 32.0116 96.0159 31.989 96.0159 31.8186C96.0159 31.6483 96.0098 29.6427 96.0159 29.5355C96.0221 29.4283 96.0463 29.3694 96.157 29.3684C96.2678 29.3672 112.333 29.3684 113.343 29.3684C114.352 29.3684 116.402 28.239 116.402 25.0878C116.402 21.9363 114.293 20.9893 113.756 20.9893H98.3264C98.0149 20.9893 97.262 20.8241 96.6822 19.8441C96.1023 18.8639 96.0159 18.3076 96.0159 16.9904V8.24453C96.0159 8.12023 96.0631 8.05807 96.157 8.05807H96.1571Z" fill="black"/>
</svg>
