<svg width="78" height="60" viewBox="0 0 78 60" fill="none" xmlns="http://www.w3.org/2000/svg">
<path d="M28.7828 0V55.9768L41.4828 60V13.0454C41.4828 10.8767 42.4617 9.3801 44.0491 9.88965C46.1259 10.4643 46.5282 12.4924 46.5282 14.6826V33.4324C54.444 37.2493 60.6635 33.4324 60.6635 23.3688C60.6745 13.0454 57.0317 8.4692 46.3107 4.81461C40.5674 2.86829 34.7147 1.26065 28.7828 0Z" fill="black"/>
<path d="M44.2619 51.6942L64.7126 44.382C67.0308 43.5524 67.3899 42.3627 65.507 41.7517C62.981 41.1658 60.3408 41.3019 57.8885 42.1445L44.2619 46.9466V39.3069L45.0454 39.045C48.1267 38.043 51.3037 37.3626 54.5253 37.0147C60.4861 36.4048 66.5081 37.1244 72.157 39.1214C78.1541 41.0312 78.8289 43.8254 77.3052 45.7572C75.7814 47.689 72.0484 49.0312 72.0484 49.0312L44.2619 59.0725V51.6942ZM5.81537 51.0811C-0.30443 49.3452 -1.32067 45.7318 1.49067 43.6355C3.65701 42.2167 5.99736 41.0828 8.45387 40.2619L26.5649 33.7113V41.1135L13.5898 45.8299C11.2866 46.6595 10.9406 47.8385 12.8006 48.4608C15.3099 49.0475 17.9343 48.9112 20.3692 48.0678L26.619 45.7752V52.4676L25.3755 52.6641C18.8559 53.7309 12.174 53.1874 5.91295 51.0811" fill="black"/>
</svg>
