<svg width="280" height="90" viewBox="0 0 280 90" fill="none" xmlns="http://www.w3.org/2000/svg">
<path d="M279.5 40C279.5 45.2691 275.758 50.3998 268.718 55.1555C261.695 59.8994 251.5 64.1913 238.858 67.8035C213.579 75.0261 178.627 79.5 140 79.5C101.373 79.5 66.4214 75.0261 41.1424 67.8035C28.4995 64.1913 18.3046 59.8994 11.2818 55.1555C4.24154 50.3998 0.5 45.2691 0.5 40C0.5 34.7309 4.24154 29.6002 11.2818 24.8445C18.3046 20.1006 28.4995 15.8087 41.1424 12.1965C66.4214 4.97393 101.373 0.5 140 0.5C178.627 0.5 213.579 4.97393 238.858 12.1965C251.5 15.8087 261.695 20.1006 268.718 24.8445C275.758 29.6002 279.5 34.7309 279.5 40Z" stroke="#4187FF"/>
<circle cx="140" cy="80" r="9.5" fill="#4187FF" stroke="#4187FF"/>
<circle cx="140" cy="80" r="6" fill="#EEF2FA"/>
</svg>
