<svg width="27" height="24" viewBox="0 0 27 24" fill="none" xmlns="http://www.w3.org/2000/svg">
<g filter="url(#filter0_ii)">
<path d="M8.69913 15.8335H8.70036L8.70345 15.8333H23.045C23.398 15.8333 23.7085 15.5989 23.8055 15.2592L26.9696 4.17584C27.0377 3.93689 26.99 3.68001 26.8406 3.48168C26.6911 3.28335 26.4573 3.16667 26.209 3.16667H6.87484L6.30939 0.619933C6.22885 0.257704 5.90791 0 5.53712 0H0.791017C0.354104 0 0 0.354395 0 0.791667C0 1.22894 0.354104 1.58333 0.791017 1.58333H4.90266C5.00277 2.03462 7.60859 13.7707 7.75856 14.4459C6.9179 14.8116 6.32814 15.6505 6.32814 16.625C6.32814 17.9345 7.39271 19 8.70119 19H23.045C23.4819 19 23.836 18.6456 23.836 18.2083C23.836 17.7711 23.4819 17.4167 23.045 17.4167H8.70119C8.2651 17.4167 7.91017 17.0614 7.91017 16.625C7.91017 16.1892 8.26386 15.8346 8.69913 15.8335ZM25.1603 4.75L22.4482 14.25H9.33565L7.22627 4.75H25.1603Z" fill="black"/>
<path d="M7.99994 21.5003C7.99994 22.8787 9.12147 24.0003 10.4999 24.0003C11.8784 24.0003 12.9999 22.8787 12.9999 21.5003C12.9999 20.1218 11.8784 19.0003 10.4999 19.0003C9.12147 19.0003 7.99994 20.1218 7.99994 21.5003ZM10.4999 20.6669C10.9594 20.6669 11.3333 21.0409 11.3333 21.5003C11.3333 21.9597 10.9594 22.3336 10.4999 22.3336C10.0405 22.3336 9.66661 21.9597 9.66661 21.5003C9.66661 21.0409 10.0405 20.6669 10.4999 20.6669Z" fill="black"/>
<path d="M18.9999 21.5003C18.9999 22.8787 20.1214 24.0003 21.4999 24.0003C22.8783 24.0003 23.9999 22.8787 23.9999 21.5003C23.9999 20.1218 22.8783 19.0003 21.4999 19.0003C20.1214 19.0003 18.9999 20.1218 18.9999 21.5003ZM21.4999 20.6669C21.9593 20.6669 22.3332 21.0409 22.3332 21.5003C22.3332 21.9597 21.9593 22.3336 21.4999 22.3336C21.0404 22.3336 20.6665 21.9597 20.6665 21.5003C20.6665 21.0409 21.0404 20.6669 21.4999 20.6669Z" fill="black"/>
</g>
<defs>
<filter id="filter0_ii" x="-0.5" y="-0.5" width="28" height="25.0003" filterUnits="userSpaceOnUse" color-interpolation-filters="sRGB">
<feFlood flood-opacity="0" result="BackgroundImageFix"/>
<feBlend mode="normal" in="SourceGraphic" in2="BackgroundImageFix" result="shape"/>
<feColorMatrix in="SourceAlpha" type="matrix" values="0 0 0 0 0 0 0 0 0 0 0 0 0 0 0 0 0 0 127 0" result="hardAlpha"/>
<feOffset dx="-0.5" dy="-0.5"/>
<feGaussianBlur stdDeviation="0.25"/>
<feComposite in2="hardAlpha" operator="arithmetic" k2="-1" k3="1"/>
<feColorMatrix type="matrix" values="0 0 0 0 1 0 0 0 0 1 0 0 0 0 1 0 0 0 0.4 0"/>
<feBlend mode="normal" in2="shape" result="effect1_innerShadow"/>
<feColorMatrix in="SourceAlpha" type="matrix" values="0 0 0 0 0 0 0 0 0 0 0 0 0 0 0 0 0 0 127 0" result="hardAlpha"/>
<feOffset dx="0.5" dy="0.5"/>
<feGaussianBlur stdDeviation="0.25"/>
<feComposite in2="hardAlpha" operator="arithmetic" k2="-1" k3="1"/>
<feColorMatrix type="matrix" values="0 0 0 0 0.127604 0 0 0 0 0.267969 0 0 0 0 0.408333 0 0 0 0.4 0"/>
<feBlend mode="normal" in2="effect1_innerShadow" result="effect2_innerShadow"/>
</filter>
</defs>
</svg>
